<svg width="40" height="40" viewBox="0 0 40 40" fill="none" xmlns="http://www.w3.org/2000/svg">
<path d="M0 20C0 8.95431 8.95431 0 20 0V0C31.0457 0 40 8.95431 40 20V20C40 31.0457 31.0457 40 20 40V40C8.95431 40 0 31.0457 0 20V20Z" fill="#FEE2E2"/>
<path d="M20 17V19M20 23H20.01M13.0718 27H26.9282C28.4678 27 29.4301 25.3333 28.6603 24L21.7321 12C20.9623 10.6667 19.0378 10.6667 18.268 12L11.3398 24C10.57 25.3333 11.5322 27 13.0718 27Z" stroke="#DC2626" stroke-width="2" stroke-linecap="round" stroke-linejoin="round"/>
</svg>
