<svg width="12" height="12" viewBox="0 0 12 12" fill="none" xmlns="http://www.w3.org/2000/svg">
<path fill-rule="evenodd" clip-rule="evenodd" d="M6.00002 0.400024C6.44185 0.400024 6.80002 0.758197 6.80002 1.20002V5.20002H10.8C11.2419 5.20002 11.6 5.5582 11.6 6.00002C11.6 6.44185 11.2419 6.80002 10.8 6.80002H6.80002V10.8C6.80002 11.2419 6.44185 11.6 6.00002 11.6C5.5582 11.6 5.20002 11.2419 5.20002 10.8V6.80002H1.20002C0.758197 6.80002 0.400024 6.44185 0.400024 6.00002C0.400024 5.5582 0.758197 5.20002 1.20002 5.20002H5.20002V1.20002C5.20002 0.758197 5.5582 0.400024 6.00002 0.400024Z" fill="white"/>
</svg>
